<?xml version="1.0" encoding="UTF-8" standalone="no"?>
<!-- Created with Inkscape (http://www.inkscape.org/) -->

<svg
   xmlns:dc="http://purl.org/dc/elements/1.1/"
   xmlns:cc="http://creativecommons.org/ns#"
   xmlns:rdf="http://www.w3.org/1999/02/22-rdf-syntax-ns#"
   xmlns:svg="http://www.w3.org/2000/svg"
   xmlns="http://www.w3.org/2000/svg"
   xmlns:sodipodi="http://sodipodi.sourceforge.net/DTD/sodipodi-0.dtd"
   xmlns:inkscape="http://www.inkscape.org/namespaces/inkscape"
   width="210mm"
   height="297mm"
   viewBox="0 0 210 297"
   version="1.1"
   id="svg8"
   inkscape:version="0.92.2 (5c3e80d, 2017-08-06)"
   sodipodi:docname="safari-pinned-tab.svg"
   inkscape:export-filename="/home/kylecoberly/Projects/personal/web-app-kitchen-sink/public/img/icons/apple-touch-icon.png"
   inkscape:export-xdpi="9.9799995"
   inkscape:export-ydpi="9.9799995">
  <defs
     id="defs2">
    <marker
       inkscape:stockid="DotL"
       orient="auto"
       refY="0.0"
       refX="0.0"
       id="DotL"
       style="overflow:visible"
       inkscape:isstock="true">
      <path
         id="path4653"
         d="M -2.5,-1.0 C -2.5,1.7600000 -4.7400000,4.0 -7.5,4.0 C -10.260000,4.0 -12.5,1.7600000 -12.5,-1.0 C -12.5,-3.7600000 -10.260000,-6.0 -7.5,-6.0 C -4.7400000,-6.0 -2.5,-3.7600000 -2.5,-1.0 z "
         style="fill-rule:evenodd;stroke:#71290f;stroke-width:1pt;stroke-opacity:1;fill:#71290f;fill-opacity:1"
         transform="scale(0.8) translate(7.4, 1)" />
    </marker>
  </defs>
  <sodipodi:namedview
     id="base"
     pagecolor="#ffffff"
     bordercolor="#666666"
     borderopacity="1.0"
     inkscape:pageopacity="0.0"
     inkscape:pageshadow="2"
     inkscape:zoom="1"
     inkscape:cx="-440.223"
     inkscape:cy="502.96826"
     inkscape:document-units="mm"
     inkscape:current-layer="layer1"
     showgrid="false"
     inkscape:window-width="3200"
     inkscape:window-height="1644"
     inkscape:window-x="0"
     inkscape:window-y="0"
     inkscape:window-maximized="1" />
  <metadata
     id="metadata5">
    <rdf:RDF>
      <cc:Work
         rdf:about="">
        <dc:format>image/svg+xml</dc:format>
        <dc:type
           rdf:resource="http://purl.org/dc/dcmitype/StillImage" />
        <dc:title></dc:title>
      </cc:Work>
    </rdf:RDF>
  </metadata>
  <g
     inkscape:label="Layer 1"
     inkscape:groupmode="layer"
     id="layer1">
    <path
       style="fill:#000000;stroke-width:0.05899953"
       d="m 82.806695,198.55989 c -0.243374,-0.0275 -0.6221,-0.0934 -0.841619,-0.14641 l -0.399121,-0.0965 0.0292,-0.30318 c 0.01605,-0.16674 0.05597,-0.72612 0.08869,-1.24303 0.03272,-0.51693 0.07692,-1.03276 0.09822,-1.14629 0.03342,-0.17814 0.01663,-0.22403 -0.122489,-0.33497 l -0.161215,-0.12855 0.172521,-0.0345 0.172518,-0.0345 0.03901,-4.29562 c 0.05465,-6.01816 0.19692,-9.77743 0.60021,-15.85953 0.341038,-5.14328 0.659897,-12.04798 0.771058,-16.69686 0.02096,-0.87614 0.05506,-2.24877 0.0758,-3.05027 0.03558,-1.37477 0.03166,-1.45887 -0.06915,-1.48516 -0.05877,-0.0153 -0.117472,0.003 -0.13044,0.0413 -0.01298,0.038 -0.05144,1.13116 -0.08548,2.42916 -0.167802,6.39795 -0.483113,12.39833 -1.004511,19.11584 -0.262905,3.38722 -0.467559,6.77903 -0.589155,9.76442 -0.06813,1.67255 -0.184131,7.61461 -0.179109,9.17443 0.002,0.6012 -0.04508,1.48749 -0.117371,2.21248 -0.164883,1.65361 -0.18031,1.73719 -0.324054,1.75557 -0.279066,0.0357 -0.28229,-0.004 -0.114684,-1.40723 0.137204,-1.1488 0.160861,-1.60373 0.180721,-3.47531 0.04921,-4.63687 0.182747,-8.67463 0.40685,-12.30141 0.100274,-1.62278 0.144437,-2.21099 0.383182,-5.10345 0.615328,-7.45491 0.904442,-12.50426 1.143512,-19.97135 0.03948,-1.23308 0.0695,-2.24725 0.0667,-2.2537 -0.0028,-0.006 -0.246551,-0.0427 -0.541686,-0.0805 -0.595234,-0.0763 -0.637484,-0.0924 -0.689305,-0.26174 -0.07076,-0.23126 0.02871,-0.28135 0.410037,-0.20652 0.191212,0.0375 0.453859,0.0595 0.583657,0.0489 l 0.235997,-0.0193 -0.0175,-5.10346 c -0.0096,-2.8069 -0.04228,-10.02845 -0.07256,-16.04787 -0.0618,-12.28418 -0.05164,-12.75734 0.333962,-15.54637 0.376037,-2.71986 1.110949,-5.56633 2.056416,-7.96494 0.370102,-0.93893 1.27893,-2.78613 1.780625,-3.61913 0.461389,-0.76609 2.193353,-3.09553 3.040034,-4.08876 0.863403,-1.012853 1.923213,-1.970053 2.955757,-2.669573 1.842178,-1.24803 3.971091,-1.854 5.733973,-1.63211 0.3169,0.0399 0.682453,0.11002 0.812336,0.15585 0.162606,0.0574 0.508128,0.0833 1.109458,0.0833 1.36025,0 2.29217,0.17373 3.43401,0.64016 1.47538,0.60268 3.10737,1.88011 4.31445,3.377113 0.51975,0.64458 1.4233,2.00712 1.77196,2.67209 0.30625,0.58408 0.33332,0.76554 0.0345,0.23103 -1.07956,-1.9308 -2.07987,-3.18496 -3.35605,-4.207703 -1.24297,-0.99614 -2.34784,-1.57755 -3.64919,-1.92032 -0.44752,-0.11787 -0.7609,-0.15718 -1.40231,-0.1759 -0.94784,-0.0277 -0.85512,0.0442 0.18946,0.14673 1.88692,0.18532 3.58353,1.00392 5.15,2.48485 l 0.4425,0.418343 -0.56523,-0.467203 c -1.36894,-1.13153 -2.63559,-1.77834 -4.06623,-2.07643 -0.60245,-0.12553 -1.63582,-0.18175 -2.18897,-0.11909 -2.329753,0.26392 -5.596554,2.923003 -7.992014,6.505273 -1.364708,2.04084 -2.80023,4.99357 -3.59202,7.38844 -0.266973,0.80751 -0.391005,1.29403 -0.616666,2.41899 -0.609999,3.04091 -0.828255,5.21702 -0.88762,8.84992 l -0.04145,2.53698 -0.01057,-2.07108 c -0.01819,-3.56418 0.139447,-5.69843 0.645202,-8.73548 0.09815,-0.5894 0.16997,-1.15943 0.159592,-1.26671 l -0.01886,-0.19508 -0.456051,0.41631 c -0.850026,0.77595 -0.932497,0.89691 -1.116629,1.63778 -0.08972,0.36099 -0.208714,0.94839 -0.264438,1.30534 -0.05572,0.35694 -0.129788,0.68626 -0.164591,0.7318 -0.03678,0.0481 -0.06486,0.39395 -0.06705,0.826 -0.0029,0.55974 -0.02694,0.78709 -0.09762,0.9211 -0.101441,0.19235 -0.154675,1.04272 -0.07672,1.22558 0.05073,0.119 0.0011,0.50673 -0.101427,0.79388 -0.04921,0.13769 -0.05152,0.27381 -0.0082,0.48513 0.0465,0.22698 0.04155,0.33769 -0.02176,0.4871 -0.06743,0.15913 -0.06877,0.23357 -0.0076,0.42051 0.0588,0.17959 0.06018,0.39863 0.0066,1.04631 -0.05498,0.6646 -0.05303,0.85553 0.01032,1.01185 0.04294,0.10597 0.09443,0.47519 0.114418,0.82048 0.0298,0.51485 0.02058,0.64089 -0.0512,0.70047 -0.118027,0.0979 -0.13065,2.41054 -0.0138,2.52725 0.05278,0.0527 0.07943,0.41622 0.09372,1.27849 0.01674,1.01077 0.0049,1.23509 -0.07375,1.39269 -0.129037,0.25867 -0.135713,1.49736 -0.0085,1.56858 0.07243,0.0405 0.08679,0.50779 0.09542,3.10528 0.0073,2.18617 -0.0086,3.07635 -0.05576,3.12349 -0.04401,0.044 -0.06592,0.44441 -0.06592,1.20462 0,1.11404 -0.04149,1.34759 -0.176388,0.99279 -0.03419,-0.0899 -0.04662,-4.2034 -0.03239,-10.72316 0.02412,-11.05628 0.04127,-11.85457 0.29759,-13.85174 0.04789,-0.37318 0.10076,-0.79797 0.11748,-0.944 l 0.0304,-0.2655 -0.09045,0.19527 c -0.184418,0.39812 -0.509683,2.77185 -0.620007,4.5247 -0.06227,0.9894 0.01875,26.2713 0.09952,31.05537 l 0.03424,2.0276 0.92225,-0.0236 c 0.507236,-0.013 0.958561,-0.0461 1.002945,-0.0737 0.06797,-0.0421 0.0749,-1.55398 0.04397,-9.58544 -0.0202,-5.24448 -0.04779,-11.40716 -0.06131,-13.69487 -0.01354,-2.2877 -0.0032,-3.96034 0.02296,-3.71697 0.02615,0.24337 0.06398,4.71702 0.08407,9.94142 0.02009,5.22441 0.05396,11.19481 0.07528,13.26756 l 0.03876,3.76864 0.348237,-0.0364 0.348239,-0.0364 -0.01844,0.19123 c -0.01688,0.17504 -0.04604,0.2002 -0.344346,0.29721 l -0.325896,0.10597 0.04,0.60202 c 0.02201,0.33112 0.07076,1.27904 0.108354,2.10651 0.155962,3.43293 0.47055,7.78869 0.860751,11.9179 0.235306,2.49007 0.75703,7.22033 0.916555,8.31005 0.06723,0.45922 0.03563,0.74038 -0.07891,0.7022 -0.124331,-0.0414 -0.922484,-7.68296 -1.283347,-12.28672 -0.20095,-2.56365 -0.479041,-7.23837 -0.558058,-9.38093 -0.01916,-0.51919 -0.0506,-1.18025 -0.06989,-1.46901 l -0.03507,-0.52503 -0.745285,0.0365 c -0.409908,0.02 -0.871397,0.0542 -1.025535,0.0758 l -0.280247,0.0393 6.53e-4,0.92123 c 0.0018,2.32572 0.265664,16.09314 0.38241,19.94856 0.159686,5.27343 0.323564,13.69615 0.324396,16.67266 2.23e-4,0.97641 0.01791,2.2558 0.03918,2.8431 l 0.03868,1.06781 0.24157,0.0419 0.24157,0.0419 -0.259222,0.0875 -0.259221,0.0875 0.03203,0.96964 c 0.01761,0.5333 0.04802,0.98563 0.06756,1.00517 0.121001,0.12101 1.32196,-0.89405 1.870385,-1.58084 0.232978,-0.29176 0.435277,-0.51879 0.449552,-0.50451 0.117583,0.11758 -0.980441,1.39848 -1.886337,2.20049 -0.245568,0.21741 -0.339246,0.34184 -0.339246,0.45061 0,0.2606 -0.100324,0.43571 -0.274698,0.47947 -0.130766,0.0328 -0.187771,0.0137 -0.272835,-0.0913 l -0.10753,-0.1328 -0.262819,0.12768 c -0.457193,0.22213 -1.811245,0.30643 -2.917088,0.18163 z m 3.05947,-0.59958 0.156004,-0.0753 -0.0044,-1.16543 c -0.0027,-0.71225 -0.02799,-1.18897 -0.065,-1.22598 -0.04142,-0.0414 -0.148364,-0.0384 -0.338308,0.009 l -0.277743,0.0699 0.01311,1.26606 0.01311,1.26605 0.173632,-0.0347 c 0.0955,-0.0191 0.243835,-0.0686 0.329635,-0.11 z m 0.0486,-2.7129 c 0.07775,-0.12184 -0.02149,-12.24853 -0.158261,-19.33709 -0.124772,-6.46693 -0.234029,-13.56434 -0.267018,-17.34586 -0.01882,-2.15791 -0.04346,-4.12259 -0.05474,-4.36597 -0.01944,-0.4192 -0.02781,-0.44249 -0.159044,-0.44249 h -0.138526 l 0.02121,6.34245 c 0.01166,3.48834 0.02868,6.35572 0.03783,6.37195 0.0091,0.0162 0.03669,4.71553 0.06122,10.44291 0.02453,5.72738 0.04987,11.01078 0.05633,11.74091 0.0064,0.73012 0.01583,2.51382 0.02083,3.9638 l 0.0091,2.63631 0.162248,0.0246 c 0.306257,0.0464 0.36188,0.0421 0.408846,-0.0315 z M 83.37321,149.46378 c -0.07312,-7.15939 -0.164914,-28.28193 -0.126475,-29.10151 0.200479,-4.27447 1.085205,-8.2676 2.568656,-11.59341 0.652216,-1.46223 1.200778,-2.79922 1.331217,-3.24451 0.07974,-0.27224 -0.129267,-0.0228 -0.448743,0.53542 -1.689288,2.95198 -3.003743,7.29624 -3.475084,11.48513 -0.255533,2.27096 -0.257422,2.4425 -0.187553,17.03625 0.03651,7.62569 0.08279,14.93352 0.102844,16.23962 0.03571,2.32592 0.0389,2.37473 0.154857,2.37473 0.117679,0 0.118163,-0.0225 0.08028,-3.73172 z m 2.03051,2.59598 c 6.53e-4,-0.62466 -0.03004,-7.87938 -0.06804,-16.12162 -0.0541,-11.73466 -0.05354,-15.23548 0.0026,-16.13637 0.06752,-1.08375 0.249819,-2.68972 0.44873,-3.95296 0.09187,-0.58346 0.06953,-1.00233 -0.04275,-0.80169 -0.186562,0.33337 -0.560735,2.79257 -0.70099,4.60715 -0.06881,0.89032 -0.05043,12.25704 0.04416,27.30203 l 0.03923,6.2392 h 0.138019 0.138021 l 0.0011,-1.13574 z m 2.625827,-40.58606 c 0.282886,-0.24838 0.758553,-1.06921 1.326507,-2.28909 0.673609,-1.44681 1.46229,-2.98973 2.474378,-4.84071 0.487932,-0.89237 0.887384,-1.65568 0.887665,-1.69624 8.99e-4,-0.1203 -0.09698,-0.0843 -0.200558,0.0738 -0.131258,0.20032 -0.216653,0.18589 -0.173604,-0.0294 0.02101,-0.10496 0.0055,-0.21288 -0.0382,-0.2655 -0.06031,-0.0727 -0.05631,-0.0886 0.02217,-0.0886 0.06215,0 0.09572,-0.0505 0.09572,-0.14402 0,-0.0792 0.02655,-0.16043 0.059,-0.18048 0.108023,-0.0668 0.06647,-0.2655 -0.05552,-0.2655 -0.06299,0 -0.128808,0.0231 -0.146271,0.0514 -0.01746,0.0282 -0.113339,0.0677 -0.213054,0.0876 -0.127089,0.0254 -0.370028,0.22626 -0.812472,0.67169 -1.297355,1.30612 -2.415284,3.20998 -3.108427,5.29374 -0.582703,1.75174 -0.788736,3.39453 -0.46619,3.71708 0.116744,0.11674 0.102357,0.12069 0.348864,-0.0958 z m 4.858507,-9.70845 -0.01362,-0.33667 0.526835,-0.49361 c 1.328872,-1.245083 2.877469,-2.378653 3.846386,-2.815563 1.564139,-0.70531 2.384626,-0.90463 3.935155,-0.95599 0.80967,-0.0268 1.02547,-0.0495 0.91449,-0.0962 -0.24455,-0.10282 -1.84642,-0.0765 -2.446244,0.0401 -1.218927,0.2371 -1.988592,0.54657 -3.251355,1.30732 -1.014129,0.61095 -1.363742,0.84863 -2.028424,1.37897 -0.640941,0.511403 -1.747386,1.610983 -1.8056,1.794403 -0.02867,0.0903 0.0024,0.15923 0.115875,0.25683 0.08528,0.0734 0.15506,0.1612 0.15506,0.1952 0,0.034 0.01463,0.0618 0.03253,0.0618 0.01788,0 0.0264,-0.1515 0.01891,-0.33666 z m 0.358992,-1.46671 c 0.446089,-0.21129 0.681474,-0.380683 1.344767,-0.967753 0.543296,-0.48087 0.496535,-0.54617 -0.228371,-0.3189 -0.707288,0.22176 -1.939828,1.194523 -1.939828,1.530983 0,0.077 0.388174,-0.0382 0.823432,-0.24433 z m -2.06275,96.86636 c -1.79e-4,-0.0892 -0.02415,-0.25518 -0.05327,-0.36875 -0.123681,-0.48239 -0.12764,-0.531 -0.04324,-0.531 0.133449,0 0.218326,0.14706 0.308851,0.5351 0.0641,0.27476 0.06849,0.38478 0.01782,0.44584 -0.112927,0.13606 -0.229797,0.0948 -0.230153,-0.0812 z m -0.281479,-1.2685 c -0.03314,-0.0406 -0.129903,-0.42044 -0.215023,-0.84419 -0.146206,-0.72786 -0.157805,-0.91664 -0.209769,-3.41436 -0.03025,-1.45415 -0.06771,-2.65662 -0.08323,-2.67214 -0.01552,-0.0155 -0.09415,0.10053 -0.174727,0.25789 -0.178853,0.3493 -0.581647,0.75027 -0.877281,0.87331 -0.303343,0.12625 -0.844436,0.11467 -1.151319,-0.0247 -0.724772,-0.32901 -1.186465,-1.28661 -1.016647,-2.10864 0.100977,-0.48878 0.31643,-0.87665 0.697947,-1.25649 0.749229,-0.74592 1.605804,-0.86596 2.201721,-0.30855 0.25769,0.24104 0.288786,0.25633 0.262101,0.12881 -0.01666,-0.0796 -0.04617,-0.52964 -0.0656,-1.00016 -0.03344,-0.80987 -0.222441,-3.66238 -0.303933,-4.58721 -0.02691,-0.3054 -0.01824,-0.42775 0.03031,-0.42775 0.09951,0 0.303463,0.36234 0.253855,0.45099 -0.0233,0.0416 -0.01077,0.45501 0.02782,0.9186 0.132635,1.59275 0.256397,3.6174 0.287754,4.70736 0.01726,0.60032 0.05782,1.46319 0.09011,1.91749 0.03229,0.45429 0.08406,1.95435 0.115045,3.33347 0.05504,2.45017 0.10834,3.08886 0.333552,3.99722 0.03676,0.14829 -0.09774,0.18744 -0.202688,0.059 z m 1.007709,-12.69964 c -0.06949,-0.0487 -0.2484,-0.31241 -0.397574,-0.58606 -0.149171,-0.27366 -0.390636,-0.652 -0.536586,-0.84075 -0.145952,-0.18875 -0.322094,-0.41926 -0.39143,-0.51225 l -0.126066,-0.16908 0.12688,0.0679 c 0.158274,0.0847 0.158818,0.0329 0.0033,-0.31852 -0.06794,-0.15359 -0.101131,-0.2999 -0.07375,-0.32512 0.02738,-0.0252 0.209083,-0.0738 0.40378,-0.10799 0.194699,-0.0342 1.150492,-0.20827 2.123983,-0.38689 0.973493,-0.17861 2.752327,-0.50032 3.952969,-0.71489 1.840022,-0.32885 2.199182,-0.40919 2.286092,-0.51135 0.06378,-0.075 0.140228,-0.10696 0.200408,-0.0839 0.08382,0.0322 0.09218,0.10455 0.06035,0.52261 -0.02031,0.2669 -0.05259,0.55165 -0.07172,0.63278 -0.02568,0.10894 -0.01973,0.12436 0.02275,0.059 0.207044,-0.31858 0.189118,-1.30699 -0.03143,-1.73314 -0.06273,-0.1212 -0.111158,-0.43693 -0.141405,-0.92183 -0.04639,-0.74375 -0.142724,-1.33221 -0.226575,-1.38403 -0.02501,-0.0154 -1.503011,0.23403 -3.284449,0.55443 -5.47018,0.98381 -5.74731,1.02935 -5.820382,0.95627 -0.142486,-0.14249 0.281169,-1.16742 0.502388,-1.21542 0.224,-0.0486 5.118839,-0.84208 6.73375,-1.09157 0.840266,-0.12983 1.538337,-0.24662 1.551266,-0.25955 0.01293,-0.0129 -0.02307,-0.12118 -0.08,-0.24057 -0.08041,-0.16863 -0.130347,-0.21059 -0.223778,-0.18805 -0.13311,0.0322 -1.619081,0.28912 -4.30923,0.74532 -0.973493,0.16508 -2.14091,0.36673 -2.59426,0.4481 -0.768073,0.13786 -0.829226,0.14117 -0.896907,0.0486 -0.03995,-0.0546 -0.112595,-0.084 -0.161437,-0.0653 -0.103255,0.0396 -0.0664,-0.0842 0.149966,-0.504 0.181378,-0.35189 0.292686,-0.84314 0.20982,-0.926 -0.103853,-0.10385 -0.160887,-0.0755 -0.226496,0.11274 -0.06675,0.19148 -0.192808,0.23361 -0.250344,0.0837 -0.06704,-0.17471 -0.03602,-0.26351 0.111687,-0.31967 0.08112,-0.0308 0.147499,-0.0869 0.147499,-0.12456 0,-0.047 0.08149,-0.0573 0.259712,-0.0329 0.159289,0.0218 0.472976,-0.007 0.811244,-0.0753 0.303342,-0.061 0.763929,-0.15386 1.023528,-0.2064 0.259596,-0.0525 0.976441,-0.1893 1.592987,-0.30392 1.880575,-0.34961 3.097473,-0.62768 3.097473,-0.70781 0,-0.0972 -0.671326,-0.60147 -0.991738,-0.74492 -0.320774,-0.14362 -0.320742,-0.30304 6e-5,-0.32979 0.259623,-0.0216 0.778094,0.18603 0.851779,0.34118 0.02827,0.0595 0.190001,0.21693 0.359407,0.3498 0.384272,0.30141 0.506796,0.30509 1.325082,0.0399 0.94979,-0.30785 1.995391,-0.86973 1.995391,-1.07228 0,-0.0682 -0.0449,-0.0799 -0.19715,-0.0514 -0.16655,0.0312 -0.22453,0.01 -0.37348,-0.13934 -0.11571,-0.11571 -0.32176,-0.21963 -0.599346,-0.3023 -0.273603,-0.0815 -0.423018,-0.15636 -0.423018,-0.21198 0,-0.10819 0.08295,-0.11083 0.17042,-0.005 0.103858,0.12514 0.715624,0.23025 1.198264,0.20588 0.39239,-0.0198 0.46308,-0.0427 0.69276,-0.22465 l 0.25578,-0.20258 -0.0373,-0.56386 c -0.0827,-1.24807 -0.25688,-2.44928 -0.68067,-4.69382 -0.098,-0.5192 -0.31309,-1.71393 -0.47791,-2.65498 -0.48835,-2.78816 -0.922907,-4.68914 -1.366359,-5.97709 -0.126335,-0.36692 -0.214234,-0.69216 -0.195331,-0.72275 0.01891,-0.0306 0.09254,-0.056 0.163635,-0.0565 0.175908,-0.002 0.240921,-0.0553 0.329305,-0.27399 0.05561,-0.13758 0.05855,-0.21777 0.01124,-0.30618 -0.05512,-0.10301 -0.01906,-0.1729 0.257206,-0.49854 0.239574,-0.28241 0.312914,-0.41089 0.288288,-0.50506 -0.03656,-0.13977 0.03938,-0.16222 0.220606,-0.0652 0.10917,0.0584 0.10974,0.068 0.013,0.22126 -0.0556,0.0881 -0.21676,0.29792 -0.358066,0.46629 l -0.256927,0.30613 0.17814,0.0921 c 0.218623,0.11306 0.691123,0.11924 0.897113,0.0118 0.12076,-0.063 0.1731,-0.0647 0.25075,-0.008 0.10697,0.0782 0.13355,0.35438 0.0397,0.4124 -0.0348,0.0216 -0.0118,0.10031 0.0572,0.19523 0.21433,0.2949 0.46237,2.05503 0.62106,4.40707 0.15777,2.33836 0.32028,3.52384 0.83308,6.07696 0.18339,0.91306 0.30521,1.66012 0.28542,1.75029 -0.0454,0.20679 0.0301,0.61924 0.0943,0.51534 0.026,-0.0421 0.0327,0.0322 0.0149,0.16504 -0.0216,0.16101 -0.002,0.29773 0.0597,0.40994 0.10354,0.18931 0.24436,1.10855 0.18462,1.2052 -0.0213,0.0345 -0.0825,0.0476 -0.13602,0.0291 -0.0741,-0.0256 -0.0706,-0.013 0.0148,0.0532 0.0989,0.0766 0.10754,0.13737 0.0737,0.51639 -0.0397,0.44463 -0.35042,1.5072 -0.55859,1.91025 -0.12714,0.24617 -0.49947,0.6255 -0.83667,0.8524 -0.11357,0.0764 -0.35209,0.2562 -0.53004,0.3995 -0.31395,0.25281 -0.33307,0.25955 -0.64525,0.22733 -0.31007,-0.032 -1.102412,0.0907 -1.197069,0.18532 -0.02395,0.024 -0.02219,0.12256 0.0039,0.21913 0.04309,0.15933 0.07163,0.17632 0.308213,0.18348 0.143401,0.004 0.323119,0.011 0.399376,0.0147 0.18896,0.009 0.53985,0.36988 0.53985,0.55468 0,0.18505 -0.195,0.31697 -0.595466,0.40286 l -0.303809,0.0652 0.03626,0.24432 c 0.01994,0.13439 0.06245,0.41691 0.09445,0.62783 0.03203,0.21092 0.05872,0.54573 0.05938,0.74403 8.17e-4,0.19829 0.05254,0.62309 0.115298,0.94399 0.06277,0.3209 0.130997,0.7357 0.151627,0.92178 0.0206,0.18607 0.0594,0.35186 0.0862,0.36841 0.0822,0.0508 0.12001,-0.13868 0.0594,-0.29809 -0.0705,-0.18532 -0.0751,-0.53816 -0.008,-0.57985 0.0273,-0.0169 0.46225,-0.0849 0.96653,-0.15114 0.5043,-0.0663 1.03277,-0.16135 1.17439,-0.21132 0.72888,-0.25716 1.06939,-1.14577 1.23112,-3.2128 0.10961,-1.40085 0.22088,-2.18298 0.31056,-2.18298 0.0356,0 0.0444,0.088 0.0221,0.22124 -0.0204,0.1217 -0.0632,0.73897 -0.0952,1.37175 -0.0896,1.77576 -0.1825,2.48314 -0.41503,3.15899 -0.0967,0.28117 -0.11116,0.42663 -0.0797,0.80363 0.0306,0.36744 0.017,0.51709 -0.0673,0.74158 -0.38093,1.01357 -1.67361,2.00456 -3.12658,2.39688 -0.292038,0.0789 -0.605728,0.17273 -0.697076,0.20861 -0.235034,0.0923 -0.866148,0.0809 -1.154644,-0.0209 -0.239733,-0.0846 -0.247578,-0.083 -0.440571,0.0864 -0.108072,0.0949 -0.270574,0.20069 -0.361117,0.23511 -0.148735,0.0566 -5.313523,1.12159 -5.439018,1.12159 -0.02901,0 -0.109602,-0.0398 -0.179092,-0.0885 z m 2.224075,-1.44512 c 4.48532,-1.01071 4.778961,-1.09818 4.778961,-1.42359 0,-0.0958 -0.0322,-0.1076 -0.221249,-0.0809 -0.121686,0.0172 -0.632769,0.0841 -1.135741,0.14865 -1.123521,0.14418 -2.867515,0.40326 -4.778961,0.70993 -0.795019,0.12756 -1.465401,0.23206 -1.489738,0.23221 -0.103267,8.2e-4 -0.02714,0.17721 0.227169,0.5267 0.328342,0.45124 0.06505,0.4626 2.619559,-0.11303 z m 6.194949,-8.85718 c 0,-0.47304 0.0567,-0.44441 -0.542887,-0.27423 -0.369424,0.10485 -0.387921,0.13584 -0.148829,0.24929 0.111571,0.0529 0.277996,0.17469 0.369826,0.27054 0.26567,0.2773 0.32189,0.2344 0.32189,-0.2456 z m 1.77943,-0.3837 c 0.22568,-0.11353 0.51416,-0.4858 0.58792,-0.75868 0.0714,-0.2643 0.0213,-0.39412 -0.17082,-0.44239 -0.15054,-0.0378 -0.54454,-0.3608 -0.54454,-0.4464 0,-0.10053 -0.40601,-0.21837 -0.6164,-0.1789 -0.10637,0.02 -0.24155,0.0895 -0.3004,0.15452 -0.17147,0.18947 -0.0331,0.26393 0.47735,0.2569 0.38031,-0.005 0.43945,0.008 0.43945,0.0965 0,0.0564 -0.0721,0.14977 -0.1603,0.20754 -0.0882,0.0578 -0.29632,0.21348 -0.46257,0.34603 -0.16625,0.13255 -0.35298,0.27471 -0.41495,0.31593 -0.10316,0.0686 -0.10022,0.0717 0.0349,0.0362 0.0811,-0.0213 0.18069,-0.0512 0.22125,-0.0665 0.0487,-0.0183 0.0738,0.0319 0.0738,0.14765 0,0.0964 0.0536,0.24355 0.11921,0.32689 0.10165,0.12924 0.15162,0.14656 0.33924,0.11764 0.12102,-0.0186 0.29067,-0.0694 0.37698,-0.11286 z m -0.0213,-2.3942 c 0.0906,-0.0906 0.0918,-0.41559 0.002,-0.5055 -0.0525,-0.0525 -0.0525,-0.12352 0,-0.29889 0.099,-0.3303 0.0845,-0.59523 -0.0769,-1.41262 -0.0929,-0.47007 -0.18558,-0.77834 -0.26413,-0.8782 -0.0666,-0.0846 -0.12107,-0.21003 -0.12112,-0.27867 -5e-5,-0.0686 -0.052,-0.40356 -0.1154,-0.74428 -0.0634,-0.34073 -0.14192,-0.9149 -0.17444,-1.27595 -0.11309,-1.25533 -0.47706,-3.20033 -0.47706,-2.54927 0,0.19018 0.2261,1.8713 0.27061,2.01197 0.0181,0.0573 0.0398,0.29629 0.0482,0.531 0.0189,0.53036 0.31475,2.73593 0.38459,2.86718 0.0283,0.0531 0.0814,0.40188 0.11813,0.77505 0.0953,0.96901 0.18992,1.73331 0.22083,1.78474 0.0384,0.0639 0.10378,0.0545 0.18484,-0.0266 z m 0.45837,-3.26267 c -0.0451,-0.16224 -0.0842,-0.2419 -0.087,-0.177 -0.006,0.15063 0.12244,0.60944 0.14901,0.531 0.011,-0.0325 -0.0169,-0.19175 -0.062,-0.354 z m -1.71683,-5.92965 c -0.0466,-0.37306 -0.16445,-1.32877 -0.2618,-2.12379 -0.19837,-1.61984 -0.35141,-2.60083 -0.41739,-2.67535 -0.066,-0.0746 -0.004,0.87073 0.12643,1.93786 0.17788,1.45135 0.47164,3.53079 0.50683,3.58773 0.10117,0.1637 0.11999,-0.13397 0.0459,-0.72645 z m -0.81433,-5.46022 c -0.04435,-0.12822 -0.125683,-0.24186 -0.180817,-0.25266 -0.11313,-0.0221 -0.271763,0.0885 -0.271121,0.1891 4.5e-4,0.0799 0.494298,0.40655 0.516808,0.34182 0.009,-0.0249 -0.0206,-0.1501 -0.0649,-0.27826 z m -9.90815,18.17345 c -0.1717,-0.23621 -0.221741,-0.36863 -0.25589,-0.67713 -0.07196,-0.65011 -0.06338,-0.85549 0.03576,-0.85549 0.06708,0 0.09021,0.0785 0.09557,0.3245 0.0045,0.20444 0.07733,0.51514 0.196982,0.83978 0.104451,0.28342 0.178912,0.5483 0.165466,0.58864 -0.01345,0.0403 -0.120493,-0.0588 -0.237884,-0.2203 z m 12.60658,-0.40516 c -0.0169,-0.044 0.0935,-0.39535 0.24528,-0.78074 0.2679,-0.68021 0.47241,-1.2584 0.549,-1.55217 0.0558,-0.21424 0.14841,-0.16102 0.21024,0.1209 0.0801,0.36508 -0.0392,1.20651 -0.22171,1.56366 -0.22791,0.44605 -0.70789,0.84359 -0.78281,0.64835 z m -4.123535,-1.72927 c -0.250862,-0.0283 -0.403514,-0.11577 -0.35076,-0.20114 0.01771,-0.0287 0.223174,-0.0455 0.456598,-0.0375 0.233424,0.008 0.484145,-0.007 0.557157,-0.0337 0.09867,-0.0358 0.13275,-0.0263 0.13275,0.037 0,0.19735 -0.312483,0.28979 -0.795745,0.23538 z m -8.953655,-0.35733 c -0.111544,-0.32347 -0.221311,-1.3377 -0.636891,-5.8848 -0.283207,-3.09873 -0.360312,-4.00172 -0.496234,-5.81146 -0.246306,-3.27952 -0.283336,-3.96162 -0.218577,-4.02637 0.11816,-0.11816 0.179179,0.41493 0.302169,2.63988 0.22139,4.00504 0.448733,6.68263 0.896678,10.56092 0.131178,1.13574 0.257103,2.2046 0.279835,2.37524 0.05553,0.41689 -0.0083,0.49063 -0.12698,0.14659 z m 11.57838,-15.96635 c 0,-0.0446 -0.0178,-0.17073 -0.0395,-0.28025 -0.0362,-0.18297 -0.0312,-0.19237 0.0617,-0.11592 0.0556,0.0458 0.0878,0.11792 0.0715,0.16036 -0.0163,0.0424 -0.004,0.0928 0.0268,0.11203 0.0891,0.0551 0.0657,0.20491 -0.0321,0.20491 -0.0487,0 -0.0885,-0.0365 -0.0885,-0.0811 z M 118.4143,142.9909 c -0.0186,-0.0301 -0.21705,-0.0388 -0.44581,-0.0197 -0.31553,0.0264 -0.43639,0.0142 -0.51495,-0.0521 -0.11253,-0.095 -0.31041,-0.15571 -1.0968,-0.33673 -0.28718,-0.0661 -0.55931,-0.15104 -0.60474,-0.18875 -0.22123,-0.1836 -0.0114,-0.41724 0.68439,-0.76222 0.21093,-0.10457 0.42332,-0.22353 0.472,-0.26435 0.0487,-0.0408 0.30829,-0.14647 0.5769,-0.23477 l 0.48841,-0.16055 -0.0318,-0.18635 c -0.40203,-2.35534 -0.64205,-5.07254 -0.70958,-8.03328 -0.0427,-1.87161 -0.11322,-3.10309 -0.26858,-4.69046 -0.30485,-3.11453 -0.71219,-6.23876 -1.17893,-9.04246 -0.12838,-0.77112 -0.23341,-1.4131 -0.23341,-1.42663 0,-0.0502 -0.36706,0.0832 -0.79372,0.28843 -0.3198,0.15383 -0.5083,0.29282 -0.69111,0.50963 -0.2293,0.27192 -0.25804,0.28899 -0.32727,0.19433 -0.10125,-0.13847 -0.0962,-0.46086 0.0105,-0.66716 0.0825,-0.1595 0.84382,-0.65837 1.41809,-0.92922 0.20686,-0.0976 0.2337,-0.13292 0.21742,-0.28632 -0.0275,-0.25834 -0.87891,-5.64102 -1.04879,-6.62989 -0.61372,-3.57251 -1.70596,-6.91227 -3.31097,-10.123993 -1.29356,-2.58853 -1.56474,-3.00065 -2.81052,-4.27142 -1.72451,-1.75909 -3.66871,-3.1719 -5.18158,-3.76535 -1.13528,-0.44534 -2.04495,-0.60276 -3.597427,-0.62254 -0.762576,-0.01 -0.903533,0.005 -1.414243,0.14972 -0.311988,0.0883 -0.662919,0.20047 -0.779848,0.24933 -0.26339,0.11005 -0.416662,0.1128 -0.216392,0.004 0.547822,-0.29793 2.347481,-0.79315 3.47753,-0.95692 0.94874,-0.1375 2.86165,-0.13773 3.80891,-3.7e-4 3.16615,0.4588 5.96979,1.88288 8.421,4.27736 2.35574,2.30123 4.06485,5.068433 5.69075,9.213863 0.99875,2.54641 1.57721,4.6885 2.07965,7.70114 0.61331,3.67742 0.70743,4.2207 0.74045,4.27412 0.0194,0.0315 0.14714,0.10729 0.2837,0.1684 0.32707,0.14636 0.45783,0.30304 0.49708,0.59566 0.0364,0.2719 0.002,0.28879 -0.24877,0.12258 -0.22805,-0.15104 -0.4621,-0.15923 -0.42128,-0.0147 0.016,0.0568 0.0464,0.22272 0.0674,0.36875 0.021,0.14602 0.10428,0.62392 0.18506,1.06199 0.79446,4.30853 1.76118,7.88439 3.36349,12.44133 0.99358,2.82572 1.44531,4.464 2.03054,7.36417 0.24305,1.2044 0.28454,1.56918 0.16486,1.44951 -0.0371,-0.0371 -0.19264,-0.68623 -0.34569,-1.44254 -0.44869,-2.21731 -1.01018,-4.39105 -1.4982,-5.80009 -0.11239,-0.3245 -0.41471,-1.17409 -0.67183,-1.88798 -0.93278,-2.5899 -1.77883,-5.56507 -2.49147,-8.76143 -0.34271,-1.53713 -0.88416,-4.46843 -0.88428,-4.7874 0,-0.15259 -0.0917,-0.22756 -0.27799,-0.22756 -0.11493,0 -0.0985,0.13431 0.24842,2.03548 0.39548,2.16702 0.8646,4.29845 1.54531,7.02095 0.69401,2.77564 0.75455,2.97955 1.52522,5.13665 0.84772,2.37281 1.26946,4.0465 1.6187,6.42382 0.0998,0.67956 0.23568,1.44777 0.3019,1.70713 0.0662,0.25935 0.1084,0.51746 0.0937,0.57358 -0.0315,0.12048 0.10337,0.16804 0.4906,0.17298 0.32976,0.004 0.82467,0.17093 0.90785,0.30583 0.0891,0.1445 -0.17867,0.40589 -0.70872,0.6918 -0.23348,0.12594 -0.47336,0.27164 -0.53307,0.32379 -0.4329,0.37814 -0.56081,0.4526 -0.87819,0.51127 -0.18646,0.0345 -0.41197,0.11661 -0.50113,0.18254 -0.0892,0.0659 -0.29083,0.1439 -0.44815,0.17329 -0.1573,0.0294 -0.49865,0.11913 -0.75853,0.19943 -0.51577,0.15935 -2.07427,0.46656 -2.68501,0.52927 -0.21092,0.0216 -0.54279,0.0626 -0.73749,0.0909 -0.54246,0.0789 -2.02526,0.12235 -2.06355,0.0604 z m 0.23647,-2.21179 c 0.24781,-0.10354 0.24584,-0.0616 0.0606,-1.28996 -0.30674,-2.03363 -0.51412,-4.30273 -0.59146,-6.47149 -0.0762,-2.13751 -0.1446,-3.09281 -0.32938,-4.60196 -0.33326,-2.72179 -0.88491,-6.5089 -1.30201,-8.93843 -0.39925,-2.32556 -0.34635,-2.10238 -0.48818,-2.05967 -0.0684,0.0206 -0.14125,0.0544 -0.16185,0.0751 -0.0206,0.0207 0.0264,0.39604 0.10433,0.83411 0.42558,2.3907 0.902,5.72867 1.28416,8.99743 0.28132,2.40614 0.32787,3.07372 0.39088,5.60496 0.0299,1.20064 0.0821,2.51485 0.11609,2.92047 0.10533,1.25794 0.29457,2.93621 0.44573,3.95297 0.0796,0.53542 0.14473,0.9934 0.14474,1.01774 2e-5,0.0663 0.0988,0.0538 0.3264,-0.0412 z m 4.31725,-0.93225 c -0.018,-0.10546 -0.1816,-1.06789 -0.36352,-2.13874 -0.85364,-5.02481 -1.00416,-5.69719 -1.40439,-6.27354 -0.1798,-0.2589 -0.19253,-0.26656 -0.21242,-0.1279 -0.0116,0.0811 0.008,0.32007 0.0441,0.531 0.0359,0.21092 0.25057,1.52513 0.47701,2.92047 0.77166,4.75499 0.84772,5.19197 0.91136,5.2353 0.035,0.0239 0.17996,0.0438 0.32211,0.0442 l 0.25848,8.2e-4 -0.0328,-0.19174 z m 1.86432,0.0199 c 0.41553,-0.0281 0.76569,-0.0612 0.77813,-0.0737 0.0124,-0.0125 -0.0405,-0.39374 -0.11758,-0.84731 -0.17249,-1.01459 -0.63948,-2.97061 -1.26741,-5.30866 -0.26144,-0.97349 -0.55544,-2.22133 -0.65332,-2.77297 -0.25828,-1.45559 -0.34136,-1.76809 -0.96472,-3.62861 -0.6192,-1.84806 -1.17874,-3.96391 -1.59666,-6.03757 -0.29723,-1.47481 -0.73942,-4.02202 -0.73942,-4.25937 0,-0.0823 -0.0405,-0.16507 -0.0899,-0.18405 -0.11113,-0.0426 -1.04181,0.031 -1.13723,0.0899 -0.0677,0.0418 -0.0346,0.27158 0.3671,2.54478 0.12763,0.72235 0.48208,2.56152 0.6594,3.42148 0.17353,0.84169 0.29359,1.28077 0.96788,3.53997 0.96724,3.24074 1.172,4.29173 1.08546,5.57131 -0.032,0.47294 -0.008,0.67915 0.20329,1.77414 0.13172,0.68144 0.34886,1.87618 0.48254,2.65497 0.13367,0.7788 0.30588,1.77441 0.38268,2.21249 0.0768,0.43807 0.15757,0.91596 0.17951,1.06199 0.0219,0.14602 0.049,0.28105 0.0601,0.30006 0.0111,0.019 0.1607,0.025 0.33244,0.0134 0.17174,-0.0117 0.65224,-0.0442 1.06777,-0.0722 z m -4.73674,-14.42889 c -0.0703,-0.71882 -0.38503,-2.6865 -0.65616,-4.10215 -0.0963,-0.50298 -0.30856,-1.69772 -0.4716,-2.65498 -0.16305,-0.95727 -0.31711,-1.76139 -0.34235,-1.78693 -0.0252,-0.0256 -0.11227,-0.0212 -0.1934,0.01 l -0.1475,0.0561 0.0767,0.40335 c 0.0422,0.22186 0.26582,1.47864 0.49703,2.79285 0.48727,2.76977 0.50578,2.87163 0.82003,4.51346 0.13044,0.68145 0.26747,1.34519 0.30451,1.47499 0.065,0.22791 0.0692,0.231 0.12188,0.0902 0.0341,-0.0912 0.0307,-0.38956 -0.009,-0.79649 z m -4.21737,-8.70501 c 0.12384,-0.0471 0.15048,-0.0881 0.12458,-0.19175 -0.0368,-0.14742 -0.0995,-0.53786 -0.71274,-4.43882 -0.49094,-3.12296 -0.64532,-3.94613 -1.04565,-5.57546 -0.4624,-1.88198 -1.29828,-4.47975 -1.87943,-5.84095 -0.31398,-0.735423 -1.17955,-1.935963 -1.17955,-1.636033 0,0.0534 0.16926,0.48977 0.37615,0.969783 1.20203,2.78894 1.86229,4.72645 2.48595,7.295 0.29706,1.22344 0.54183,2.55519 0.97213,5.28915 0.16599,1.05462 0.36709,2.32901 0.44689,2.83198 0.0798,0.50297 0.16043,1.01405 0.17915,1.13574 0.0187,0.12168 0.0433,0.22125 0.0545,0.22125 0.0113,0 0.0914,-0.0269 0.17799,-0.0599 z m 2.64076,-0.67761 c -0.006,-0.0649 -0.20035,-1.28619 -0.43068,-2.71397 -0.7337,-4.54801 -0.92869,-5.49503 -1.27014,-6.16885 -0.27723,-0.54708 -0.27028,-0.37386 0.0474,1.18338 0.11587,0.56788 0.26516,1.39092 0.33176,1.82899 0.0666,0.43807 0.26604,1.67264 0.4432,2.74348 0.17717,1.07084 0.36903,2.24695 0.42636,2.61358 l 0.10422,0.6666 0.17986,-0.0176 c 0.1396,-0.0136 0.1772,-0.044 0.16797,-0.1356 z m 2.56135,-0.0737 c -0.11625,-0.79023 -0.95495,-5.62779 -1.05102,-6.0622 -0.33901,-1.53299 -1.03298,-3.78558 -1.4417,-4.67973 -0.1786,-0.39069 -0.28055,-0.52868 -0.57394,-0.7768 -0.6343,-0.5364 -0.7577,-0.33796 -0.64153,1.03157 0.0385,0.45429 0.0956,1.30389 0.12687,1.88798 0.0312,0.5841 0.0826,1.15492 0.11401,1.26849 0.0547,0.19753 0.32143,1.80139 0.91738,5.51646 0.15097,0.94104 0.28871,1.77072 0.30612,1.84373 0.0303,0.12712 0.0576,0.13275 0.64473,0.13275 0.58292,0 0.6131,-0.006 0.6131,-0.12353 0,-0.2172 -0.93007,-5.64367 -1.17712,-6.86791 -0.25214,-1.24943 -0.30226,-1.90942 -0.15431,-2.03221 0.30841,-0.25596 0.79562,1.66945 1.48465,5.86718 0.27697,1.68738 0.51427,3.10116 0.52733,3.14172 0.013,0.0406 0.0945,0.0738 0.18086,0.0738 0.14801,0 0.15524,-0.0128 0.12457,-0.22125 z m -4.35307,-12.94918 c 0.16607,-0.47639 0.0236,-1.46657 -0.31374,-2.17952 -0.0848,-0.1792 -0.15414,-0.34661 -0.15414,-0.37203 0,-0.0254 -0.18584,-0.37488 -0.413,-0.776553 -0.22715,-0.40168 -0.41299,-0.74204 -0.41299,-0.75637 0,-0.0684 -0.94927,-1.42391 -1.32391,-1.89044 -2.21734,-2.76117 -4.93606,-4.72116 -7.67352,-5.53202 -1.09563,-0.32453 -1.81331,-0.44791 -2.63745,-0.4534 -0.6444,-0.004 -0.90062,0.13793 -0.66783,0.37072 0.0479,0.0479 0.55903,0.32502 1.13574,0.6157 0.5767,0.29068 1.1813,0.6114 1.34355,0.71271 0.16225,0.1013 0.36137,0.21646 0.4425,0.2559 0.0811,0.0394 0.29352,0.1675 0.47199,0.28458 0.17848,0.11709 0.51035,0.33256 0.7375,0.47884 0.22715,0.14627 0.52894,0.34381 0.67065,0.43897 0.32408,0.21762 0.63337,0.39783 1.15833,0.67493 0.22715,0.1199 0.51627,0.28833 0.64248,0.37429 0.12622,0.086 0.25437,0.15629 0.28479,0.15629 0.14675,0 1.217,0.70887 1.59281,1.05498 0.78624,0.72409 1.39335,1.37811 1.67695,1.8065 0.0859,0.1298 0.20925,0.29474 0.27405,0.36653 0.0648,0.0718 0.14729,0.18347 0.18334,0.24816 0.0361,0.0647 0.18797,0.29799 0.33761,0.51846 0.25328,0.37315 1.2138,2.010843 1.53274,2.613323 0.0773,0.14602 0.20066,0.34054 0.27411,0.43227 0.0735,0.0917 0.13356,0.20345 0.13356,0.24826 0,0.0448 0.10261,0.18935 0.22802,0.32119 0.25828,0.27151 0.37801,0.26842 0.47586,-0.0123 z m -2.29529,34.44165 c -0.1337,-0.1611 0.002,-0.99433 0.13933,-0.85344 0.0137,0.0141 0.0338,0.22256 0.0447,0.46332 0.0204,0.44906 -0.036,0.56854 -0.18406,0.39012 z m -0.0919,-11.16307 c -0.28991,-0.28991 -0.5356,-1.13832 -0.47352,-1.63518 0.0554,-0.44315 0.40037,-0.98618 0.53868,-0.84787 0.0606,0.0606 0.13022,0.87269 0.15018,1.75168 0.0188,0.82721 -0.0127,0.93403 -0.21534,0.73137 z m -1.34643,-13.73663 c -0.13432,-0.74996 -0.24988,-1.35132 -0.43083,-2.24198 -0.0791,-0.38939 -0.15602,-0.78764 -0.17091,-0.88499 -0.0264,-0.17302 -0.0256,-0.17368 0.037,-0.0295 0.10596,0.24376 0.44864,1.80356 0.58526,2.66401 0.15038,0.94703 0.13343,1.35243 -0.0206,0.49246 z"
       id="path3764"
       inkscape:connector-curvature="0" />
    <circle
       id="path3785"
       cx="99.012489"
       cy="146.39383"
       style="opacity:1;fill:none;stroke:#712973;stroke-width:6.54174376;stroke-miterlimit:4;stroke-dasharray:none;stroke-dashoffset:0;stroke-opacity:1"
       r="69.229126" />
  </g>
</svg>
